<?xml version="1.0" standalone="no"?><!DOCTYPE svg PUBLIC "-//W3C//DTD SVG 1.1//EN" "http://www.w3.org/Graphics/SVG/1.1/DTD/svg11.dtd"><svg height="1024" node-id="1" sillyvg="true" template-height="1024" template-width="1024" version="1.1" viewBox="0 0 1024 1024" width="1024" xmlns="http://www.w3.org/2000/svg" xmlns:xlink="http://www.w3.org/1999/xlink"><defs node-id="130"><linearGradient gradientUnits="objectBoundingBox" id="linear-gradient" node-id="3" spreadMethod="pad" x1="0.164" x2="0.919" y1="0.162" y2="0.838"><stop offset="0" stop-color="#cfdafd" stop-opacity="0.678"></stop><stop offset="1" stop-color="#ffffff" stop-opacity="0"></stop></linearGradient><linearGradient gradientUnits="objectBoundingBox" id="linear-gradient-2" node-id="6" spreadMethod="pad" x1="0" x2="0.977" y1="0.302" y2="0.62"><stop offset="0" stop-color="#769dff"></stop><stop offset="1" stop-color="#5c89ff"></stop></linearGradient><linearGradient gradientUnits="objectBoundingBox" id="linear-gradient-3" node-id="9" spreadMethod="pad" x1="0.5" x2="0.869" y1="0.08" y2="0.96"><stop offset="0" stop-color="#bcceff"></stop><stop offset="1" stop-color="#99b4ff"></stop></linearGradient><linearGradient gradientUnits="objectBoundingBox" id="linear-gradient-4" node-id="12" spreadMethod="pad" x1="0.5" x2="0.5" y1="0" y2="1"><stop offset="0" stop-color="#70b1ff"></stop><stop offset="1" stop-color="#4f86ff"></stop></linearGradient><linearGradient gradientUnits="objectBoundingBox" id="linear-gradient-5" node-id="22" spreadMethod="pad" x1="0.5" x2="0.5" y1="0" y2="1"><stop offset="0" stop-color="#95c3ff"></stop><stop offset="1" stop-color="#6696ff"></stop></linearGradient><linearGradient gradientUnits="objectBoundingBox" id="linear-gradient-6" node-id="25" spreadMethod="pad" x1="0" x2="1" y1="0.337" y2="0.565"><stop offset="0" stop-color="#5c91ff"></stop><stop offset="1" stop-color="#4478ff"></stop></linearGradient><linearGradient gradientUnits="objectBoundingBox" id="linear-gradient-7" node-id="35" spreadMethod="pad" x1="0.5" x2="0.5" y1="0" y2="1"><stop offset="0" stop-color="#e0ebff"></stop><stop offset="1" stop-color="#b6d2ff"></stop></linearGradient><linearGradient gradientUnits="objectBoundingBox" id="linear-gradient-8" node-id="38" spreadMethod="pad" x1="0.5" x2="0.5" y1="0" y2="1"><stop offset="0" stop-color="#d0e1ff"></stop><stop offset="1" stop-color="#aacbff"></stop></linearGradient><linearGradient gradientUnits="objectBoundingBox" id="linear-gradient-9" node-id="41" spreadMethod="pad" x1="0.562" x2="0.5" y1="0.428" y2="0.599"><stop offset="0" stop-color="#dfecff"></stop><stop offset="1" stop-color="#b7d4ff"></stop></linearGradient><linearGradient gradientUnits="objectBoundingBox" id="linear-gradient-10" node-id="44" spreadMethod="pad" x1="0.252" x2="0.821" y1="0.123" y2="0.812"><stop offset="0" stop-color="#e1ecff"></stop><stop offset="1" stop-color="#b7d4ff"></stop></linearGradient><linearGradient gradientUnits="objectBoundingBox" id="linear-gradient-11" node-id="53" spreadMethod="pad" x1="0.083" x2="0.91" y1="0.027" y2="0.926"><stop offset="0" stop-color="#7fe7cf"></stop><stop offset="0.733" stop-color="#86e7d1"></stop><stop offset="1" stop-color="#b9f8e7"></stop></linearGradient><linearGradient gradientUnits="objectBoundingBox" id="linear-gradient-12" node-id="57" spreadMethod="pad" x1="0" x2="0.91" y1="0.023" y2="0.928"><stop offset="0" stop-color="#b6f6e7"></stop><stop offset="1" stop-color="#55ebc9"></stop></linearGradient><linearGradient gradientUnits="objectBoundingBox" id="linear-gradient-13" node-id="60" spreadMethod="pad" x1="0.066" x2="1" y1="0" y2="1"><stop offset="0" stop-color="#bfd8ff"></stop><stop offset="0.574" stop-color="#bfd2f9"></stop><stop offset="0.631" stop-color="#d9e5ff"></stop><stop offset="0.69" stop-color="#bfd1f8"></stop><stop offset="1" stop-color="#bfcef5"></stop></linearGradient><linearGradient gradientUnits="objectBoundingBox" id="linear-gradient-14" node-id="66" spreadMethod="pad" x1="0" x2="1" y1="0" y2="1"><stop offset="0" stop-color="#9cb6ff"></stop><stop offset="1" stop-color="#738eea"></stop></linearGradient><linearGradient gradientUnits="objectBoundingBox" id="linear-gradient-15" node-id="69" spreadMethod="pad" x1="0" x2="1.016" y1="0.299" y2="0.642"><stop offset="0" stop-color="#7191fd"></stop><stop offset="1" stop-color="#4e76ff"></stop></linearGradient><linearGradient gradientUnits="objectBoundingBox" id="linearGradient1" node-id="230" spreadMethod="pad" x1="0.029" x2="1.03" y1="-0.436" y2="0.5"><stop offset="0" stop-color="#b3f7e8"></stop><stop offset="1" stop-color="#57edcb"></stop></linearGradient><linearGradient gradientUnits="objectBoundingBox" id="linearGradient2" node-id="237" spreadMethod="pad" x1="0.029" x2="1.03" y1="-0.436" y2="0.5"><stop offset="0" stop-color="#b3f7e8"></stop><stop offset="1" stop-color="#57edcb"></stop></linearGradient><linearGradient gradientUnits="objectBoundingBox" id="linear-gradient-16" node-id="72" spreadMethod="pad" x1="0.029" x2="1.03" y1="-0.436" y2="0.5"><stop offset="0" stop-color="#b3f7e8"></stop><stop offset="1" stop-color="#57edcb"></stop></linearGradient><filter filterUnits="objectBoundingBox" height="765.1559" id="路径_1619" node-id="15" width="321.75632" x="364.894" y="169.96162"><feOffset color-interpolation-filters="linearRGB" dx="0" dy="6" in="SourceGraphic" result="result1"></feOffset><feGaussianBlur color-interpolation-filters="linearRGB" in="result1" result="blur" stdDeviation="3 3"></feGaussianBlur><feFlood color-interpolation-filters="linearRGB" flood-color="#ffffff" flood-opacity="0.278" result="color"></feFlood><feComposite color-interpolation-filters="linearRGB" in="SourceGraphic" in2="blur" operator="out" result="result4"></feComposite><feComposite color-interpolation-filters="linearRGB" in="color" in2="result4" operator="in" result="result5"></feComposite><feComposite color-interpolation-filters="linearRGB" in="result5" in2="SourceGraphic" operator="in" result="result6"></feComposite></filter><filter filterUnits="objectBoundingBox" height="757.25854" id="路径_1621" node-id="28" width="320.47147" x="349.29404" y="184.39804"><feOffset color-interpolation-filters="linearRGB" dx="10" dy="-10" in="SourceGraphic" result="result1"></feOffset><feGaussianBlur color-interpolation-filters="linearRGB" in="result1" result="blur-2" stdDeviation="0 0"></feGaussianBlur><feFlood color-interpolation-filters="linearRGB" flood-color="#72a1fc" result="color-2"></feFlood><feComposite color-interpolation-filters="linearRGB" in="SourceGraphic" in2="blur-2" operator="out" result="result4"></feComposite><feComposite color-interpolation-filters="linearRGB" in="color-2" in2="result4" operator="in" result="result5"></feComposite><feComposite color-interpolation-filters="linearRGB" in="result5" in2="SourceGraphic" operator="in" result="result6"></feComposite></filter><filter filterUnits="objectBoundingBox" height="32" id="椭圆_687" node-id="47" width="31" x="479.5" y="655.5"><feOffset color-interpolation-filters="linearRGB" dx="0" dy="2" in="SourceGraphic" result="result1"></feOffset><feGaussianBlur color-interpolation-filters="linearRGB" in="result1" result="blur-3" stdDeviation="1.5 1.5"></feGaussianBlur><feFlood color-interpolation-filters="linearRGB" flood-color="#000000" flood-opacity="0.059" result="result3"></feFlood><feComposite color-interpolation-filters="linearRGB" in="result3" in2="blur-3" operator="in" result="result4"></feComposite><feComposite color-interpolation-filters="linearRGB" in="SourceGraphic" in2="result4" operator="over" result="result5"></feComposite></filter><clipPath id="clip-高效协同" node-id="75"><path d="M 0.00 0.00 L 1024.00 0.00 L 1024.00 1024.00 L 0.00 1024.00 Z" fill="#000000" fill-rule="nonzero" node-id="291" stroke="none" target-height="1024" target-width="1024" target-x="0" target-y="0"></path></clipPath></defs><g clip-path="url(#clip-高效协同)" id="高效协同" node-id="77"><path d="M -1024.00 -86.20 L 0.00 -86.20 L 0.00 494.80 L -1024.00 494.80 Z" fill="#ffffff" fill-rule="nonzero" node-id="296" stroke="none" target-height="581" target-width="1024" target-x="-1024" target-y="-86.20001"></path><path d="M 651.70 877.60 L 756.40 932.40 L 786.80 907.30 L 698.90 846.80 Z" fill="url(#linear-gradient)" fill-opacity="0.95" fill-rule="nonzero" group-id="1" id="路径_1625" node-id="79" stroke="none" target-height="85.60004" target-width="135.09998" target-x="651.7" target-y="846.8"></path><path d="M 171.40 447.90 L 185.30 441.10 L 187.20 440.70 L 189.10 441.20 L 332.90 516.60 L 337.90 519.20 L 341.50 521.60 L 343.20 523.10 L 344.60 525.10 L 345.80 528.50 L 346.20 537.50 L 346.60 644.30 L 346.60 703.10 L 341.90 707.30 L 332.50 715.00 L 331.90 710.30 L 330.40 677.00 L 326.10 537.10 Z" fill="#9fc4fd" fill-rule="nonzero" group-id="2,6" id="路径_1597" node-id="81" stroke="none" target-height="274.3" target-width="175.20001" target-x="171.4" target-y="440.7"></path><path d="M 167.20 452.60 L 167.80 449.80 L 168.60 448.60 L 169.90 447.80 L 170.90 447.60 L 173.60 448.30 L 323.80 527.70 L 327.40 530.20 L 330.30 533.50 L 331.50 535.60 L 332.20 538.00 L 332.50 540.90 L 332.90 712.40 L 332.40 714.50 L 330.90 716.00 L 329.60 716.30 L 328.10 716.10 L 325.80 715.30 L 175.70 635.80 L 173.30 634.30 L 171.20 632.50 L 169.40 630.30 L 168.10 627.80 L 167.30 625.10 L 167.00 622.20 L 167.20 452.60 Z" fill="url(#linear-gradient-2)" fill-rule="nonzero" group-id="2,7" id="路径_1598" node-id="82" stroke="none" target-height="268.69998" target-width="165.9" target-x="167" target-y="447.6"></path><path d="M 279.10 556.30 L 283.30 562.50 L 286.70 568.70 L 289.40 574.80 L 291.60 581.10 L 293.10 587.10 L 293.90 592.80 L 293.90 601.10 L 293.30 604.80 L 292.30 608.20 L 291.00 611.50 L 289.20 614.40 L 287.10 616.90 L 284.60 619.10 L 281.70 620.80 L 278.70 622.00 L 275.40 622.80 L 271.90 623.10 L 268.30 622.90 L 260.80 621.30 L 256.70 619.80 L 251.60 617.30 L 246.30 614.10 L 241.00 610.00 L 236.00 605.50 L 231.20 600.40 L 226.60 594.50 L 222.40 588.30 L 219.00 582.10 L 216.30 576.00 L 214.10 569.70 L 212.60 563.70 L 211.80 558.00 L 211.60 553.70 L 211.90 549.70 L 212.40 546.00 L 213.40 542.60 L 214.70 539.30 L 216.50 536.40 L 218.60 533.90 L 221.10 531.70 L 224.00 530.00 L 227.00 528.80 L 230.30 528.00 L 233.80 527.70 L 237.40 527.90 L 241.10 528.50 L 244.90 529.50 L 249.00 531.00 L 254.20 533.50 L 259.40 536.80 L 264.70 540.80 L 269.70 545.30 L 274.50 550.40 L 279.10 556.30 Z" fill="#deeaff" fill-rule="nonzero" group-id="2,8" id="椭圆_684" node-id="83" stroke="none" target-height="95.39996" target-width="82.29999" target-x="211.6" target-y="527.7"></path><path d="M 271.60 561.50 L 275.70 567.70 L 279.10 573.90 L 281.80 580.00 L 284.00 586.30 L 285.50 592.30 L 286.30 598.00 L 286.30 606.30 L 285.70 610.00 L 284.70 613.40 L 283.40 616.70 L 281.60 619.60 L 279.50 622.10 L 277.00 624.30 L 274.20 626.00 L 271.10 627.20 L 267.80 628.00 L 264.30 628.30 L 257.10 627.50 L 253.20 626.50 L 249.10 625.00 L 244.00 622.50 L 238.70 619.20 L 233.40 615.20 L 228.40 610.70 L 223.60 605.60 L 219.00 599.70 L 214.80 593.50 L 211.40 587.30 L 208.70 581.20 L 206.50 574.90 L 205.00 568.90 L 204.20 563.20 L 204.00 558.90 L 204.30 554.90 L 205.80 547.80 L 207.20 544.50 L 208.90 541.60 L 211.00 539.10 L 213.50 536.90 L 216.40 535.20 L 219.40 534.00 L 222.70 533.20 L 226.30 532.90 L 229.80 533.10 L 233.50 533.70 L 237.30 534.70 L 241.40 536.20 L 246.60 538.70 L 251.80 542.00 L 257.10 546.00 L 262.10 550.50 L 266.90 555.60 L 271.60 561.50 Z" fill="#ffffff" fill-rule="nonzero" group-id="2,9" id="椭圆_685" node-id="84" stroke="none" target-height="95.39996" target-width="82.29999" target-x="204" target-y="532.9"></path><path d="M 233.10 563.60 L 233.50 560.90 L 234.00 559.70 L 234.80 558.80 L 235.80 558.30 L 237.00 558.30 L 238.30 558.90 L 240.10 560.60 L 263.50 587.90 L 265.50 591.30 L 266.00 594.60 L 265.50 596.00 L 263.70 597.40 L 262.00 597.80 L 249.60 599.10 L 242.00 599.70 L 238.80 598.90 L 235.70 597.10 L 233.80 594.60 L 233.10 591.70 L 233.10 563.60 Z" fill="#85e9d2" fill-rule="nonzero" group-id="2,10" id="路径_1596" node-id="85" stroke="none" target-height="41.400024" target-width="32.899994" target-x="233.1" target-y="558.3"></path><path d="M 392.90 201.80 L 445.60 175.30 L 449.40 174.40 L 451.80 174.30 L 454.50 174.70 L 457.60 175.80 L 555.20 230.00 L 680.30 300.50 L 686.80 305.20 L 690.10 308.10 L 693.30 311.60 L 696.60 316.00 L 700.40 322.80 L 702.00 327.00 L 703.10 331.30 L 703.90 336.10 L 704.30 341.50 L 704.40 353.90 L 704.40 850.30 L 703.30 855.30 L 702.50 856.80 L 700.50 859.10 L 663.70 879.70 L 654.80 356.80 Z" fill="url(#linear-gradient-3)" fill-rule="nonzero" group-id="3,11" id="路径_1617" node-id="87" stroke="none" target-height="705.4" target-width="311.50003" target-x="392.9" target-y="174.3"></path><path d="M 388.10 213.30 L 388.80 210.60 L 390.60 206.70 L 392.00 204.70 L 393.90 203.00 L 395.30 202.10 L 399.10 201.20 L 401.10 201.20 L 403.50 201.70 L 406.50 202.80 L 432.20 217.00 L 483.70 246.50 L 639.50 337.10 L 645.60 340.70 L 652.20 345.20 L 658.80 351.40 L 662.10 355.50 L 665.90 361.90 L 667.40 365.80 L 668.50 369.70 L 669.30 374.10 L 669.50 379.00 L 668.50 870.60 L 667.70 873.70 L 665.20 877.60 L 663.40 879.30 L 661.20 880.70 L 659.60 881.40 L 655.70 881.70 L 651.40 880.50 L 575.70 836.90 L 388.10 730.70 Z" fill="#dce7ff" fill-rule="nonzero" group-id="3,12" id="路径_1618" node-id="88" stroke="none" target-height="680.5" target-width="281.4" target-x="388.1" target-y="201.2"></path><path d="M 391.70 242.90 L 402.70 234.50 L 404.30 234.00 L 408.20 233.90 L 412.40 235.60 L 465.40 263.30 L 467.70 264.90 L 470.70 267.60 L 476.50 274.50 L 479.20 278.60 L 481.70 283.00 L 483.60 287.60 L 485.70 294.50 L 486.70 296.70 L 490.60 301.60 L 496.50 306.30 L 499.40 308.10 L 507.10 311.90 L 545.20 333.40 L 549.00 335.40 L 553.10 336.60 L 556.80 336.70 L 559.90 335.50 L 562.40 333.10 L 566.50 327.60 L 569.40 325.10 L 570.90 324.40 L 572.50 324.20 L 574.40 324.40 L 576.80 325.10 L 604.00 339.70 L 642.00 361.00 L 646.80 364.10 L 649.60 366.50 L 652.70 369.60 L 656.20 374.60 L 658.80 380.70 L 659.50 384.20 L 659.80 388.00 L 659.50 859.70 L 659.30 861.90 L 658.80 864.20 L 657.80 866.70 L 655.60 869.40 L 654.00 870.40 L 652.30 871.10 L 650.00 871.30 L 647.00 871.10 L 639.10 867.80 L 623.20 859.60 L 601.00 847.60 L 514.60 799.20 L 410.20 739.60 L 406.60 737.30 L 403.70 734.90 L 401.30 732.30 L 399.30 729.40 L 397.70 726.40 L 396.40 723.20 L 395.10 718.20 L 394.40 712.90 L 393.80 701.60 L 391.70 242.90 Z" fill="url(#linear-gradient-4)" fill-rule="nonzero" group-id="3,13,34" id="路径_1619-2" node-id="90" stroke="none" target-height="637.4" target-width="268.09998" target-x="391.7" target-y="233.9"></path><path d="M 391.70 242.90 L 402.70 234.50 L 404.30 234.00 L 408.20 233.90 L 412.40 235.60 L 465.40 263.30 L 467.70 264.90 L 470.70 267.60 L 476.50 274.50 L 479.20 278.60 L 481.70 283.00 L 483.60 287.60 L 485.70 294.50 L 486.70 296.70 L 490.60 301.60 L 496.50 306.30 L 499.40 308.10 L 507.10 311.90 L 545.20 333.40 L 549.00 335.40 L 553.10 336.60 L 556.80 336.70 L 559.90 335.50 L 562.40 333.10 L 566.50 327.60 L 569.40 325.10 L 570.90 324.40 L 572.50 324.20 L 574.40 324.40 L 576.80 325.10 L 604.00 339.70 L 642.00 361.00 L 646.80 364.10 L 649.60 366.50 L 652.70 369.60 L 656.20 374.60 L 658.80 380.70 L 659.50 384.20 L 659.80 388.00 L 659.50 859.70 L 659.30 861.90 L 658.80 864.20 L 657.80 866.70 L 655.60 869.40 L 654.00 870.40 L 652.30 871.10 L 650.00 871.30 L 647.00 871.10 L 639.10 867.80 L 623.20 859.60 L 601.00 847.60 L 514.60 799.20 L 410.20 739.60 L 406.60 737.30 L 403.70 734.90 L 401.30 732.30 L 399.30 729.40 L 397.70 726.40 L 396.40 723.20 L 395.10 718.20 L 394.40 712.90 L 393.80 701.60 L 391.70 242.90 Z" fill="#ffffff" fill-rule="nonzero" filter="url(#路径_1619)" group-id="3,13,35,49" id="路径_1619-3" node-id="92" stroke="none" target-height="637.4" target-width="268.09998" target-x="391.7" target-y="233.9"></path><path d="M 375.50 257.00 L 375.90 253.40 L 377.50 249.00 L 378.70 246.90 L 380.30 245.00 L 383.10 243.20 L 386.50 242.50 L 388.60 242.70 L 391.00 243.30 L 399.10 246.90 L 422.10 259.20 L 447.90 274.00 L 453.00 277.30 L 456.10 279.80 L 462.70 286.40 L 465.50 290.30 L 468.40 295.90 L 470.70 303.40 L 472.50 307.30 L 474.70 310.90 L 479.40 316.70 L 485.00 321.40 L 529.20 345.90 L 532.00 347.10 L 536.40 348.40 L 538.90 348.70 L 541.40 348.40 L 544.30 347.10 L 545.50 345.90 L 549.70 339.50 L 551.10 337.90 L 553.50 336.40 L 556.50 336.00 L 558.50 336.30 L 563.60 338.20 L 578.60 346.00 L 591.40 353.00 L 629.30 375.00 L 632.10 377.20 L 636.50 381.70 L 641.20 387.90 L 643.30 391.60 L 644.90 395.70 L 645.70 398.60 L 646.30 404.70 L 648.70 829.50 L 648.80 859.00 L 648.50 863.20 L 647.40 869.10 L 645.60 872.80 L 644.40 874.40 L 643.00 875.60 L 641.20 876.40 L 638.90 876.80 L 636.60 876.60 L 633.60 875.80 L 629.90 874.00 L 492.60 799.30 L 402.30 749.70 L 388.10 741.20 L 385.70 739.20 L 383.20 736.80 L 380.50 732.70 L 378.60 727.50 L 377.90 720.90 L 375.50 257.00 Z" fill="url(#linear-gradient-5)" fill-rule="nonzero" group-id="3,14" id="路径_1620" node-id="93" stroke="none" target-height="634.3" target-width="273.3" target-x="375.5" target-y="242.5"></path><path d="M 376.00 257.30 L 376.20 255.50 L 377.00 253.40 L 378.30 251.30 L 380.20 249.50 L 381.70 248.50 L 385.60 247.50 L 387.70 247.60 L 390.20 248.10 L 393.20 249.30 L 401.10 253.40 L 435.00 271.70 L 451.00 280.70 L 456.10 285.60 L 461.50 292.60 L 463.80 296.70 L 465.80 301.00 L 468.00 308.40 L 470.70 313.40 L 473.30 316.70 L 476.10 319.40 L 479.00 321.80 L 485.40 326.00 L 528.80 349.90 L 531.50 351.20 L 535.90 352.40 L 538.40 352.70 L 540.80 352.50 L 543.60 351.20 L 544.90 349.90 L 549.00 343.70 L 550.30 342.10 L 552.60 340.70 L 555.60 340.30 L 557.60 340.60 L 562.60 342.40 L 577.30 350.10 L 589.80 357.00 L 627.00 378.50 L 630.60 381.70 L 633.10 384.30 L 635.90 388.00 L 639.20 393.70 L 641.70 400.30 L 642.40 403.90 L 642.60 407.80 L 643.10 857.30 L 643.00 865.60 L 642.70 869.20 L 642.20 871.50 L 640.60 875.20 L 638.40 877.40 L 636.90 878.10 L 635.10 878.50 L 632.80 878.50 L 630.50 878.10 L 627.60 877.00 L 623.90 875.30 L 519.00 817.60 L 400.90 752.10 L 395.10 748.70 L 386.70 741.90 L 381.50 736.00 L 379.30 732.40 L 377.60 728.30 L 376.70 725.30 L 376.00 718.60 L 376.00 257.30 Z" fill="url(#linear-gradient-6)" fill-rule="nonzero" group-id="3,15,36" id="路径_1621-2" node-id="95" stroke="none" target-height="631" target-width="267.09998" target-x="376" target-y="247.5"></path><path d="M 376.00 257.30 L 376.20 255.50 L 377.00 253.40 L 378.30 251.30 L 380.20 249.50 L 381.70 248.50 L 385.60 247.50 L 387.70 247.60 L 390.20 248.10 L 393.20 249.30 L 401.10 253.40 L 435.00 271.70 L 451.00 280.70 L 456.10 285.60 L 461.50 292.60 L 463.80 296.70 L 465.80 301.00 L 468.00 308.40 L 470.70 313.40 L 473.30 316.70 L 476.10 319.40 L 479.00 321.80 L 485.40 326.00 L 528.80 349.90 L 531.50 351.20 L 535.90 352.40 L 538.40 352.70 L 540.80 352.50 L 543.60 351.20 L 544.90 349.90 L 549.00 343.70 L 550.30 342.10 L 552.60 340.70 L 555.60 340.30 L 557.60 340.60 L 562.60 342.40 L 577.30 350.10 L 589.80 357.00 L 627.00 378.50 L 630.60 381.70 L 633.10 384.30 L 635.90 388.00 L 639.20 393.70 L 641.70 400.30 L 642.40 403.90 L 642.60 407.80 L 643.10 857.30 L 643.00 865.60 L 642.70 869.20 L 642.20 871.50 L 640.60 875.20 L 638.40 877.40 L 636.90 878.10 L 635.10 878.50 L 632.80 878.50 L 630.50 878.10 L 627.60 877.00 L 623.90 875.30 L 519.00 817.60 L 400.90 752.10 L 395.10 748.70 L 386.70 741.90 L 381.50 736.00 L 379.30 732.40 L 377.60 728.30 L 376.70 725.30 L 376.00 718.60 L 376.00 257.30 Z" fill="#ffffff" fill-rule="nonzero" filter="url(#路径_1621)" group-id="3,15,37,50" id="路径_1621-3" node-id="97" stroke="none" target-height="631" target-width="267.09998" target-x="376" target-y="247.5"></path><path d="M 473.10 467.40 L 475.50 472.00 L 478.90 480.70 L 480.00 485.20 L 480.80 493.20 L 480.50 497.10 L 479.90 500.50 L 478.80 503.50 L 477.30 506.30 L 475.40 508.50 L 473.00 510.20 L 470.30 511.40 L 467.50 511.90 L 464.30 511.90 L 461.20 511.30 L 457.90 510.20 L 454.40 508.40 L 447.90 503.70 L 444.60 500.60 L 438.60 493.30 L 435.90 488.90 L 433.50 484.40 L 430.20 475.60 L 429.10 471.20 L 428.30 463.10 L 428.50 459.20 L 429.20 455.80 L 430.20 452.80 L 431.80 450.10 L 433.70 447.90 L 436.00 446.10 L 438.70 445.00 L 441.60 444.40 L 444.70 444.50 L 447.80 445.10 L 451.10 446.20 L 454.60 447.90 L 461.20 452.60 L 464.50 455.80 L 470.40 463.10 L 473.10 467.40 Z" fill="url(#linear-gradient-7)" fill-rule="nonzero" group-id="3,16" id="椭圆_686" node-id="98" stroke="none" target-height="67.5" target-width="52.5" target-x="428.3" target-y="444.4"></path><path d="M 429.90 570.20 L 426.20 568.10 L 424.00 566.50 L 421.80 564.20 L 419.40 560.50 L 418.60 558.10 L 418.20 555.60 L 418.20 552.80 L 418.80 549.40 L 420.30 544.30 L 424.40 533.70 L 426.90 528.80 L 429.70 524.30 L 432.70 520.60 L 434.90 518.50 L 437.10 517.00 L 439.20 515.90 L 442.30 515.00 L 445.40 514.60 L 448.50 514.70 L 451.60 515.30 L 454.60 516.20 L 457.50 517.50 L 462.90 521.20 L 465.30 523.50 L 470.10 530.00 L 476.10 539.80 L 479.10 545.40 L 484.80 557.40 L 489.10 569.10 L 490.30 574.00 L 494.30 598.00 L 494.30 601.30 L 494.00 602.40 L 493.40 603.40 L 491.90 604.10 L 490.60 604.10 L 488.50 603.50 L 429.90 570.20 Z" fill="url(#linear-gradient-8)" fill-rule="nonzero" group-id="3,17" id="路径_1622" node-id="99" stroke="none" target-height="89.5" target-width="76.099976" target-x="418.2" target-y="514.6"></path><path d="M 421.50 621.00 L 417.60 619.80 L 416.40 619.80 L 415.30 620.30 L 414.40 621.10 L 413.80 622.90 L 413.60 624.70 L 414.20 627.80 L 415.20 629.90 L 416.30 631.60 L 418.30 633.70 L 435.90 644.00 L 616.40 748.00 L 618.40 748.30 L 619.80 748.00 L 621.80 746.60 L 622.50 744.00 L 622.10 741.70 L 621.10 739.60 L 618.30 735.90 L 615.70 733.60 L 610.80 730.70 L 421.50 621.00 Z" fill="#89acff" fill-rule="nonzero" group-id="3,18" id="路径_1623" node-id="100" stroke="none" target-height="128.5" target-width="208.9" target-x="413.6" target-y="619.8"></path><path d="M 421.50 621.00 L 417.60 619.80 L 416.40 619.80 L 415.30 620.30 L 414.40 621.10 L 413.80 622.90 L 413.60 624.70 L 414.20 627.80 L 415.20 629.90 L 416.30 631.60 L 418.30 633.70 L 430.70 640.90 L 495.30 677.50 L 497.40 677.80 L 498.80 677.60 L 500.80 676.10 L 501.50 673.60 L 501.10 671.30 L 500.10 669.10 L 497.20 665.40 L 494.70 663.10 L 421.50 621.00 Z" fill="url(#linear-gradient-9)" fill-rule="nonzero" group-id="3,19" id="路径_1624" node-id="101" stroke="none" target-height="58" target-width="87.899994" target-x="413.6" target-y="619.8"></path><path d="M 506.00 669.50 L 505.30 673.50 L 503.40 676.90 L 500.60 679.40 L 498.80 680.30 L 495.00 681.00 L 491.20 680.30 L 487.90 678.30 L 485.50 675.30 L 484.20 671.60 L 484.20 667.40 L 484.70 665.50 L 486.60 662.10 L 489.40 659.60 L 491.20 658.70 L 495.00 658.00 L 498.80 658.70 L 500.60 659.60 L 503.40 662.10 L 505.30 665.50 L 506.00 669.50 Z" fill="url(#linear-gradient-10)" fill-rule="nonzero" filter="url(#椭圆_687)" group-id="3,20,38" id="椭圆_687-2" node-id="103" stroke="none" target-height="23" target-width="21.799988" target-x="484.2" target-y="658"></path><path d="M 197.10 215.20 L 198.60 214.30 L 200.90 214.00 L 204.10 215.20 L 380.10 316.80 L 383.50 319.20 L 385.50 321.10 L 387.40 323.60 L 388.30 325.50 L 388.90 327.70 L 389.20 330.20 L 389.20 365.90 L 401.90 391.20 L 402.50 394.40 L 402.20 396.00 L 400.90 397.90 L 389.20 405.10 L 389.20 414.60 L 375.60 423.90 L 373.60 338.10 L 182.10 224.30 Z" fill="url(#linear-gradient-11)" fill-rule="nonzero" group-id="4,21" id="路径_1599" node-id="105" stroke="none" target-height="209.9" target-width="220.4" target-x="182.1" target-y="214"></path><path d="M 180.10 228.00 L 180.80 225.70 L 181.70 224.50 L 183.10 223.60 L 185.50 223.40 L 187.20 224.10 L 349.80 317.40 L 371.20 329.80 L 374.50 332.20 L 376.00 334.00 L 377.30 336.40 L 378.20 340.40 L 377.80 360.50 L 377.80 379.10 L 388.70 401.70 L 389.30 404.10 L 389.00 405.80 L 388.30 406.40 L 387.30 406.50 L 377.80 403.60 L 377.60 422.00 L 377.10 423.20 L 376.20 424.10 L 374.80 424.50 L 372.40 424.20 L 364.20 419.70 L 229.50 341.90 L 190.50 319.20 L 186.00 316.20 L 182.70 312.70 L 181.40 310.20 L 180.30 306.30 L 180.10 303.80 L 180.10 228.00 Z" fill="url(#linear-gradient-12)" fill-rule="nonzero" group-id="4,22" id="路径_1600" node-id="106" stroke="none" target-height="201.1" target-width="209.19998" target-x="180.1" target-y="223.4"></path><path d="M 213.00 266.90 L 210.90 266.10 L 209.00 266.70 L 208.40 267.40 L 208.10 268.60 L 208.10 270.70 L 208.40 272.40 L 209.80 275.10 L 214.70 278.10 L 341.80 351.40 L 343.80 351.90 L 345.10 351.60 L 345.40 351.00 L 345.40 345.90 L 344.80 343.90 L 343.00 342.00 L 266.00 297.80 L 213.00 266.90 Z" fill="#e3e9ff" fill-rule="nonzero" group-id="4,23,39" id="路径_1602" node-id="108" stroke="none" target-height="85.79999" target-width="137.29999" target-x="208.1" target-y="266.1"></path><path d="M 211.00 268.90 L 208.90 268.10 L 207.00 268.70 L 206.40 269.40 L 206.10 270.60 L 206.10 272.70 L 206.40 274.40 L 207.80 277.10 L 212.70 280.10 L 339.80 353.40 L 341.80 353.90 L 343.10 353.60 L 343.40 353.00 L 343.40 347.90 L 342.80 345.90 L 341.00 344.00 L 264.00 299.80 L 211.00 268.90 Z" fill="#ffffff" fill-rule="nonzero" group-id="4,23,40" id="路径_1601" node-id="109" stroke="none" target-height="85.79999" target-width="137.29999" target-x="206.1" target-y="268.1"></path><path d="M 213.00 298.90 L 210.90 298.10 L 209.00 298.70 L 208.40 299.40 L 208.10 300.60 L 208.10 302.70 L 208.40 304.40 L 209.80 307.10 L 214.70 310.10 L 341.80 383.40 L 343.80 383.90 L 345.10 383.60 L 345.40 383.00 L 345.40 377.90 L 344.80 375.90 L 343.00 374.00 L 266.00 329.80 L 213.00 298.90 Z" fill="#e3e9ff" fill-rule="nonzero" group-id="4,24,41" id="路径_1602-2" node-id="111" stroke="none" target-height="85.79999" target-width="137.29999" target-x="208.1" target-y="298.1"></path><path d="M 211.00 300.90 L 208.90 300.10 L 207.00 300.70 L 206.40 301.40 L 206.10 302.60 L 206.10 304.70 L 206.40 306.40 L 207.80 309.10 L 212.70 312.10 L 339.80 385.40 L 341.80 385.90 L 343.10 385.60 L 343.40 385.00 L 343.40 379.90 L 342.80 377.90 L 341.00 376.00 L 264.00 331.80 L 211.00 300.90 Z" fill="#ffffff" fill-rule="nonzero" group-id="4,24,42" id="路径_1601-2" node-id="112" stroke="none" target-height="85.79999" target-width="137.29999" target-x="206.1" target-y="300.1"></path><path d="M 579.60 421.30 L 597.30 408.60 L 599.80 407.60 L 602.40 407.80 L 911.60 587.70 L 913.00 588.60 L 916.10 591.50 L 918.40 595.50 L 919.10 597.80 L 919.80 604.40 L 920.00 814.40 L 902.10 825.30 L 893.30 614.10 Z" fill="url(#linear-gradient-13)" fill-rule="nonzero" group-id="5,25" id="路径_1603" node-id="114" stroke="none" target-height="417.69998" target-width="340.40002" target-x="579.6" target-y="407.6"></path><path d="M 576.30 426.50 L 576.50 424.50 L 576.90 423.40 L 578.70 421.50 L 580.00 421.10 L 581.50 421.20 L 583.40 422.00 L 895.50 602.70 L 898.90 605.20 L 901.70 608.90 L 903.30 613.60 L 903.80 618.90 L 903.70 821.50 L 902.90 824.20 L 901.60 825.30 L 900.50 825.50 L 897.80 824.80 L 895.50 823.60 L 586.40 647.40 L 582.60 644.60 L 579.30 641.00 L 577.90 638.80 L 577.00 636.40 L 576.60 633.80 L 576.30 426.50 Z" fill="#e5ebfc" fill-rule="nonzero" group-id="5,26" id="路径_1604" node-id="115" stroke="none" target-height="404.4" target-width="327.5" target-x="576.3" target-y="421.1"></path><path d="M 613.60 497.40 L 618.70 493.50 L 723.30 554.40 L 725.80 556.20 L 726.70 557.40 L 727.20 558.90 L 727.40 561.00 L 727.50 674.90 L 726.20 676.00 L 722.70 678.10 L 722.70 561.00 Z" fill="url(#linear-gradient-14)" fill-rule="nonzero" group-id="5,27" id="路径_1605" node-id="116" stroke="none" target-height="184.59998" target-width="113.900024" target-x="613.6" target-y="493.5"></path><path d="M 612.40 499.50 L 612.70 498.30 L 613.30 497.40 L 614.90 497.00 L 616.30 497.50 L 719.60 557.30 L 721.10 558.50 L 722.70 560.60 L 723.40 563.30 L 724.10 675.20 L 723.70 676.90 L 723.20 677.80 L 722.30 678.30 L 720.40 678.10 L 718.80 677.30 L 615.50 617.60 L 614.20 616.40 L 613.30 615.10 L 612.70 613.50 L 612.60 611.80 L 612.40 499.50 Z" fill="url(#linear-gradient-15)" fill-rule="nonzero" group-id="5,28" id="路径_1606" node-id="117" stroke="none" target-height="181.29999" target-width="111.69995" target-x="612.4" target-y="497"></path><path d="M 710.20 647.70 L 693.50 638.10 L 692.60 637.10 L 692.30 635.90 L 692.40 615.30 L 693.00 614.80 L 693.80 615.00 L 699.60 618.30 L 699.60 608.70 L 671.10 591.90 L 670.90 601.80 L 677.50 605.70 L 678.20 606.30 L 679.00 608.00 L 679.10 628.60 L 678.50 629.10 L 677.20 628.70 L 660.50 619.10 L 659.60 618.10 L 659.30 616.90 L 659.40 596.30 L 660.00 595.80 L 660.80 596.00 L 667.80 600.00 L 667.80 589.60 L 638.50 573.30 L 638.50 582.80 L 645.50 586.90 L 646.30 587.60 L 647.10 589.30 L 647.20 609.90 L 646.60 610.40 L 645.20 610.00 L 628.50 600.40 L 627.70 599.40 L 627.40 598.10 L 627.40 577.60 L 628.10 577.10 L 628.90 577.30 L 634.60 580.50 L 634.60 566.80 L 667.80 585.10 L 667.80 576.60 L 648.50 565.40 L 647.70 564.40 L 647.40 563.10 L 647.30 543.10 L 647.70 542.20 L 648.90 542.30 L 689.40 565.80 L 690.70 567.20 L 690.90 568.10 L 691.20 588.00 L 690.80 589.00 L 690.00 589.20 L 689.10 588.80 L 670.90 578.30 L 670.90 587.30 L 703.20 606.60 L 703.20 620.40 L 710.50 624.70 L 711.70 626.00 L 712.00 627.00 L 712.20 646.90 L 711.80 648.00 L 711.30 648.10 L 710.20 647.70 Z" fill="#dcebff" fill-rule="nonzero" group-id="5,29" id="联合_285" node-id="118" stroke="none" target-height="105.89996" target-width="84.79999" target-x="627.4" target-y="542.2"></path><path d="M 708.20 648.70 L 691.50 639.10 L 690.60 638.10 L 690.30 636.90 L 690.40 616.30 L 691.00 615.80 L 691.80 616.00 L 697.60 619.30 L 697.60 609.70 L 669.10 592.90 L 668.90 602.80 L 675.50 606.70 L 676.20 607.30 L 677.00 609.00 L 677.10 629.60 L 676.50 630.10 L 675.20 629.70 L 658.50 620.10 L 657.60 619.10 L 657.30 617.90 L 657.40 597.30 L 658.00 596.80 L 658.80 597.00 L 665.80 601.00 L 665.80 590.60 L 636.50 574.30 L 636.50 583.80 L 643.50 587.90 L 644.80 589.30 L 645.10 590.30 L 645.20 610.90 L 644.60 611.40 L 643.20 611.00 L 626.50 601.40 L 625.70 600.40 L 625.40 599.10 L 625.40 578.60 L 626.10 578.10 L 626.90 578.30 L 632.60 581.50 L 632.60 567.80 L 665.80 586.10 L 665.80 577.60 L 646.50 566.40 L 645.70 565.40 L 645.40 564.10 L 645.30 544.10 L 645.70 543.20 L 646.90 543.30 L 687.40 566.80 L 688.70 568.20 L 688.90 569.10 L 689.20 589.00 L 688.80 590.00 L 688.00 590.20 L 687.10 589.80 L 668.90 579.30 L 668.90 588.30 L 701.20 607.60 L 701.20 621.40 L 708.50 625.70 L 709.70 627.00 L 710.00 628.00 L 710.20 647.90 L 709.80 649.00 L 709.30 649.10 L 708.20 648.70 Z" fill="#ffffff" fill-rule="nonzero" group-id="5,30" id="联合_286" node-id="119" stroke="none" target-height="105.89996" target-width="84.79999" target-x="625.4" target-y="543.2"></path><path d="M 754.00 589.90 L 751.90 589.10 L 750.00 589.70 L 749.40 590.40 L 749.10 591.60 L 749.10 593.70 L 749.40 595.40 L 750.80 598.10 L 755.10 600.70 L 867.00 665.30 L 868.90 665.90 L 870.30 665.60 L 870.50 665.00 L 870.50 659.90 L 870.30 658.80 L 869.10 657.00 L 866.50 655.00 L 754.00 589.90 Z" fill="#30cca7" fill-rule="nonzero" group-id="5,31,43" id="路径_1602-3" node-id="121" stroke="none" target-height="76.80005" target-width="121.400024" target-x="749.1" target-y="589.1"></path><path d="M 752.00 591.90 L 749.90 591.10 L 748.00 591.70 L 747.40 592.40 L 747.10 593.60 L 747.10 595.70 L 747.40 597.40 L 748.80 600.10 L 753.10 602.70 L 864.80 667.60 L 866.80 668.10 L 868.10 667.80 L 868.40 667.20 L 868.40 662.10 L 867.60 660.20 L 866.50 658.80 L 864.30 657.20 L 752.00 591.90 Z" fill="url(#linearGradient1)" fill-rule="nonzero" group-id="5,31,44" id="路径_1601-3" node-id="122" stroke="none" target-height="77" target-width="121.30005" target-x="747.1" target-y="591.1"></path><path d="M 754.00 623.90 L 751.90 623.10 L 750.00 623.70 L 749.40 624.40 L 749.10 625.60 L 749.10 627.70 L 749.40 629.40 L 750.80 632.10 L 755.10 634.70 L 867.00 699.30 L 868.90 699.90 L 870.30 699.60 L 870.50 699.00 L 870.50 693.90 L 870.30 692.80 L 869.10 691.00 L 866.50 689.00 L 754.00 623.90 Z" fill="#30cca7" fill-rule="nonzero" group-id="5,32,45" id="路径_1602-4" node-id="124" stroke="none" target-height="76.80005" target-width="121.400024" target-x="749.1" target-y="623.1"></path><path d="M 752.00 625.90 L 749.90 625.10 L 748.00 625.70 L 747.40 626.40 L 747.10 627.60 L 747.10 629.70 L 747.40 631.40 L 748.80 634.10 L 753.10 636.70 L 864.80 701.60 L 866.80 702.10 L 868.10 701.80 L 868.40 701.20 L 868.40 696.10 L 867.60 694.20 L 866.50 692.80 L 864.30 691.20 L 752.00 625.90 Z" fill="url(#linearGradient2)" fill-rule="nonzero" group-id="5,32,46" id="路径_1601-4" node-id="125" stroke="none" target-height="77" target-width="121.30005" target-x="747.1" target-y="625.1"></path><path d="M 754.00 659.90 L 751.90 659.10 L 750.00 659.70 L 749.40 660.40 L 749.10 661.60 L 749.10 663.70 L 749.40 665.40 L 750.80 668.10 L 755.10 670.70 L 867.00 735.30 L 868.90 735.90 L 870.30 735.60 L 870.50 729.90 L 870.30 728.80 L 869.10 727.00 L 866.50 725.00 L 754.00 659.90 Z" fill="#30cca7" fill-rule="nonzero" group-id="5,33,47" id="路径_1602-5" node-id="127" stroke="none" target-height="76.80005" target-width="121.400024" target-x="749.1" target-y="659.1"></path><path d="M 752.00 661.90 L 749.90 661.10 L 748.00 661.70 L 747.40 662.40 L 747.10 663.60 L 747.10 665.70 L 747.40 667.40 L 748.80 670.10 L 753.10 672.70 L 864.80 737.60 L 866.80 738.10 L 868.10 737.80 L 868.40 737.20 L 868.40 732.10 L 867.60 730.20 L 866.50 728.80 L 864.30 727.20 L 752.00 661.90 Z" fill="url(#linear-gradient-16)" fill-rule="nonzero" group-id="5,33,48" id="路径_1601-5" node-id="128" stroke="none" target-height="77" target-width="121.30005" target-x="747.1" target-y="661.1"></path></g></svg>